<svg width="70" height="48" viewBox="0 0 70 48" fill="none" xmlns="http://www.w3.org/2000/svg">
<path d="M0.0627854 22.2621C-0.097257 34.3448 0.0627855 45.1034 0.38287 46.1793L1.02304 48L34.792 47.8345L68.641 47.5862L69.0411 23.7517C69.2812 10.6759 69.2011 -1.54972e-06 68.9611 -1.54972e-06C68.721 -1.54972e-06 61.3591 5.04827 52.6367 11.1724C41.9139 18.7034 35.9923 22.3448 34.5519 22.3448C33.1116 22.3448 27.0299 18.6207 16.3871 11.2552L0.302849 0.248274L0.0627854 22.2621Z" fill="#444BB3"/>
<path d="M68.9611 -1.54972e-06C68.7186 0.00174427 61.3576 5.04933 52.6367 11.1724C41.9139 18.7034 35.9923 22.3448 34.5519 22.3448C33.1116 22.3448 27.0299 18.6207 16.3871 11.2552L0.302849 0.248274L68.9611 -1.54972e-06Z" fill="#7B83EB"/>
</svg>
