<svg width="48" height="48" viewBox="0 0 48 48" fill="none" xmlns="http://www.w3.org/2000/svg">
<path d="M32.002 34.1133L36.1353 29.9783C36.692 29.4283 37.3963 29.0518 38.1628 28.8945C38.9293 28.7373 39.7249 28.806 40.4531 29.0923L45.4905 31.1044C46.2264 31.4032 46.8574 31.9132 47.304 32.5703C47.7506 33.2273 47.9927 34.0018 48 34.7963V44.026C47.9957 44.5665 47.8822 45.1005 47.6661 45.5959C47.4501 46.0913 47.1361 46.5378 46.7431 46.9086C46.35 47.2794 45.886 47.5668 45.379 47.7535C44.872 47.9402 44.3325 48.0223 43.7929 47.9948C8.49408 45.7982 1.37158 15.8937 0.0245735 4.44882C-0.0379553 3.8868 0.0191756 3.31789 0.192207 2.77954C0.365239 2.24119 0.65025 1.74559 1.02849 1.32535C1.40673 0.905108 1.86963 0.569745 2.38673 0.341325C2.90383 0.112905 3.46342 -0.003395 4.02868 7.54423e-05H12.941C13.7363 0.00243048 14.5127 0.242758 15.1704 0.690147C15.8281 1.13754 16.3369 1.77153 16.6315 2.51057L18.6427 7.55002C18.9384 8.27561 19.0139 9.07227 18.8596 9.8405C18.7054 10.6087 18.3283 11.3145 17.7755 11.8696L13.6422 16.0045C13.6422 16.0045 16.0225 32.1196 32.002 34.1133Z" fill="black"/>
</svg>
