<svg width="48" height="48" viewBox="0 0 48 48" fill="none" xmlns="http://www.w3.org/2000/svg">
<path d="M0 23.04C0 12.1788 0 6.74826 3.37413 3.37413C6.74826 0 12.1788 0 23.04 0H24.96C35.8212 0 41.2517 0 44.6259 3.37413C48 6.74826 48 12.1788 48 23.04V24.96C48 35.8212 48 41.2517 44.6259 44.6259C41.2517 48 35.8212 48 24.96 48H23.04C12.1788 48 6.74826 48 3.37413 44.6259C0 41.2517 0 35.8212 0 24.96V23.04Z" fill="#0077FF"/>
<path d="M25.5401 34.5801C14.6001 34.5801 8.3602 27.0801 8.1002 14.6001H13.5802C13.7602 23.7601 17.8001 27.6401 21.0001 28.4401V14.6001H26.1603V22.5001C29.3203 22.1601 32.6399 18.5601 33.7599 14.6001H38.92C38.06 19.4801 34.46 23.0801 31.9 24.5601C34.46 25.7601 38.5602 28.9001 40.1202 34.5801H34.44C33.22 30.7801 30.1803 27.8401 26.1603 27.4401V34.5801H25.5401Z" fill="white"/>
</svg>
