<svg width="48" height="48" viewBox="0 0 48 48" fill="none" xmlns="http://www.w3.org/2000/svg">
<path d="M23.5102 0C10.5268 0 0 10.7461 0 24C0 28.502 1.2398 32.6992 3.35204 36.3008L0.21046 48L11.9158 44.8633C15.3386 46.8496 19.2915 48 23.5102 48C36.4936 48 47.0204 37.2539 47.0204 24C47.0204 10.7461 36.4936 0 23.5102 0ZM15.463 12.8047C15.8457 12.8047 16.2379 12.8027 16.5765 12.8203C16.9955 12.8301 17.4528 12.8613 17.889 13.8477C18.4075 15.0195 19.5383 17.959 19.6837 18.2578C19.8291 18.5566 19.9305 18.9062 19.7296 19.2969C19.5383 19.6973 19.4369 19.9395 19.1556 20.293C18.8629 20.6367 18.5434 21.0645 18.2793 21.3242C17.9866 21.623 17.6862 21.9492 18.023 22.543C18.3597 23.1367 19.5306 25.084 21.2602 26.6562C23.4834 28.6836 25.3603 29.3066 25.9439 29.6055C26.5274 29.9043 26.8661 29.8574 27.2028 29.457C27.5491 29.0664 28.6588 27.7285 29.051 27.1328C29.4337 26.5371 29.824 26.6406 30.352 26.8359C30.8897 27.0312 33.7519 28.4707 34.3355 28.7695C34.919 29.0684 35.3017 29.2148 35.449 29.457C35.6001 29.707 35.6001 30.8965 35.1161 32.2852C34.632 33.6719 32.2557 35.0117 31.1901 35.1055C30.1148 35.207 29.1103 35.5996 24.199 33.625C18.2736 31.2422 14.5389 25.0488 14.2462 24.6484C13.9534 24.2578 11.8737 21.4277 11.8737 18.5078C11.8737 15.5781 13.3795 14.1426 13.9056 13.5469C14.4432 12.9512 15.0708 12.8047 15.463 12.8047Z" fill="#2ECC71"/>
</svg>
